<svg width='200' height ='200'>
  <line x1="100" y1="20" x2="20" y2="75" style="stroke:blue; stroke-width:3"></line>
  <line x1="100" y1="15" x2="20" y2="70" style="stroke:orange; stroke-width:3"></line>
  <line x1="100" y1="20" x2="180" y2="75" style="stroke:blue; stroke-width:3"></line>
  <line x1="100" y1="15" x2="180" y2="70" style="stroke:orange; stroke-width:3"></line>
  <line x1="20" y1="75" x2="60" y2="180" style="stroke:blue; stroke-width:3"></line>
  <line x1="20" y1="70" x2="60" y2="175" style="stroke:red; stroke-width:3"></line>
  <line x1="180" y1="75" x2="140" y2="180" style="stroke:blue; stroke-width:3"></line>
  <line x1="60" y1="180" x2="140" y2="180" style="stroke:blue; stroke-width:3"></line>
  <line x1="60" y1="175" x2="140" y2="175" style="stroke:red; stroke-width:3"></line>


  <line x1="20" y1="75" x2="70" y2="100" style="stroke:red; stroke-width:3"></line>
  <line x1="20" y1="70" x2="70" y2="95" style="stroke:orange; stroke-width:3"></line>
  <line x1="180" y1="75" x2="130" y2="100" style="stroke:orange; stroke-width:3"></line>
  <line x1="140" y1="180" x2="120" y2="140" style="stroke:red; stroke-width:3"></line>

  
  <circle cx ='100' cy ='20' r='10' fill = "#F50087"/>
  <circle cx ='20' cy ='75' r='10' fill = "#F50087"/>
  <circle cx ='180' cy ='75' r='10' fill = "#F50087"/>
  <circle cx ='60' cy ='180' r='10' fill = "#F50087"/>
  <circle cx ='140' cy ='180' r='10' fill = "#F50087"/>


  <line x1="70" y1="100" x2="130" y2="100" style="stroke:orange; stroke-width:3"></line>
  <line x1="70" y1="100" x2="120" y2="140" style="stroke:red; stroke-width:3"></line>
  
  <circle cx ='100' cy ='65' r='8' fill = "#F50087"/>
  <circle cx ='70' cy ='100' r='8' fill = "#F50087"/>
  <circle cx ='130' cy ='100' r='8' fill = "#F50087"/>
  <circle cx ='80' cy ='140' r='8' fill = "#F50087"/>
  <circle cx ='120' cy ='140' r='8' fill = "#F50087"/>
</svg>
