<svg width='200' height ='200'>
  <line x1="10" y1="5" x2="10" y2="195" style="stroke:#000000; stroke-width:3"></line>
  <line x1="10" y1="5" x2="50" y2="5" style="stroke:#000000; stroke-width:3"></line>
  <line x1="10" y1="195" x2="50" y2="195" style="stroke:#000000; stroke-width:3"></line>
  <line x1="185" y1="5" x2="185" y2="195" style="stroke:#000000; stroke-width:3"></line>
  <line x1="185" y1="5" x2="145" y2="5" style="stroke:#000000; stroke-width:3"></line>
  <line x1="185" y1="195" x2="145" y2="195" style="stroke:#000000; stroke-width:3"></line>
  <line x1="30" y1="100" x2="170" y2="100" style="stroke:#F8F32B; stroke-width:3"></line>
  <line x1="30" y1="20" x2="30" y2="100" style="stroke:#F8F32B; stroke-width:3"></line>
  <line x1="30" y1="100" x2="170" y2="180" style="stroke:#F8F32B; stroke-width:3"></line>
  <line x1="30" y1="20" x2="170" y2="100" style="stroke:#F8F32B; stroke-width:3"></line>
  <line x1="30" y1="20" x2="170" y2="180" style="stroke:#F8F32B; stroke-width:3"></line>
  <circle cx ='30' cy ='20' r='10' fill = "#F50087"/>
  <text x="30" y="35" style="font-family: Consolas">u<tspan baseline-shift="sub">a</tspan></text>
  <circle cx ='30' cy ='100' r='10' fill = "#F50087"/>
  <text x="30" y="110" style="font-family: Consolas">u<tspan baseline-shift="sub">5</tspan></text>
  <circle cx ='170' cy ='180' r='10' fill = "#F50087"/>
  <text x="170" y="190" style="font-family: Consolas">u<tspan baseline-shift="sub">4</tspan></text>
  <circle cx ='170' cy ='100' r='10' fill = "#F50087"/>
  <text x="170" y="110" style="font-family: Consolas">u<tspan baseline-shift="sub">3</tspan></text>
  <text x="0" y="100" style="font-family: Consolas">T<tspan baseline-shift="sub"> </tspan></text>
  <text x="190" y="100" style="font-family: Consolas"><tspan baseline-shift="sub">+</tspan></text>
  <text x="20" y="60" style="font-family: Consolas"><tspan baseline-shift="sub">b</tspan></text>
  <text x="100" y="190" style="font-family: Consolas"><tspan baseline-shift="sub">G · a</tspan></text>
</svg>
