<svg width='500' height ='500'> 
  <line x1="250" y1="20" x2="250" y2="70" style="stroke:#F8F32B; stroke-width:3"></line>
  <line x1="250" y1="120" x2="250" y2="370" style="stroke:#F8F32B; stroke-width:3"></line>
  <line x1="250" y1="420" x2="250" y2="470" style="stroke:#F8F32B; stroke-width:3"></line>
  
  <line x1="250" y1="220" x2="350" y2="220" style="stroke:#F8F32B; stroke-width:3"></line>
  <line x1="400" y1="220" x2="450" y2="220" style="stroke:#F8F32B; stroke-width:3"></line>

  <line x1="250" y1="270" x2="150" y2="270" style="stroke:#F8F32B; stroke-width:3"></line>
  <line x1="50" y1="270" x2="100" y2="270" style="stroke:#F8F32B; stroke-width:3"></line>  

  <line x1="250" y1="20" x2="200" y2="50" style="stroke:#F8F32B; stroke-width:3"></line>
  <line x1="250" y1="70" x2="200" y2="50" style="stroke:#F8F32B; stroke-width:3"></line>
  <line x1="250" y1="20" x2="300" y2="50" style="stroke:#F8F32B; stroke-width:3"></line>
  <line x1="250" y1="70" x2="300" y2="50" style="stroke:#F8F32B; stroke-width:3"></line>
  <line x1="200" y1="50" x2="200" y2="100" style="stroke:#F8F32B; stroke-width:3"></line>
  <line x1="300" y1="50" x2="300" y2="100" style="stroke:#F8F32B; stroke-width:3"></line>
  <line x1="200" y1="100" x2="300" y2="100" style="stroke:#F8F32B; stroke-width:3"></line>
  <line x1="200" y1="100" x2="250" y2="120" style="stroke:#F8F32B; stroke-width:3"></line>
  <line x1="300" y1="100" x2="250" y2="120" style="stroke:#F8F32B; stroke-width:3"></line>

  <line x1="200" y1="400" x2="250" y2="370" style="stroke:#F8F32B; stroke-width:3"></line>
  <line x1="300" y1="400" x2="250" y2="370" style="stroke:#F8F32B; stroke-width:3"></line>
  <line x1="200" y1="400" x2="300" y2="400" style="stroke:#F8F32B; stroke-width:3"></line>
  <line x1="200" y1="400" x2="200" y2="450" style="stroke:#F8F32B; stroke-width:3"></line>
  <line x1="300" y1="400" x2="300" y2="450" style="stroke:#F8F32B; stroke-width:3"></line>
  <line x1="200" y1="450" x2="250" y2="420" style="stroke:#F8F32B; stroke-width:3"></line>
  <line x1="200" y1="450" x2="250" y2="470" style="stroke:#F8F32B; stroke-width:3"></line>
  <line x1="300" y1="450" x2="250" y2="420" style="stroke:#F8F32B; stroke-width:3"></line>
  <line x1="300" y1="450" x2="250" y2="470" style="stroke:#F8F32B; stroke-width:3"></line>

  <line x1="350" y1="220" x2="370" y2="170" style="stroke:#F8F32B; stroke-width:3"></line>
  <line x1="350" y1="220" x2="370" y2="270" style="stroke:#F8F32B; stroke-width:3"></line>
  <line x1="420" y1="170" x2="370" y2="170" style="stroke:#F8F32B; stroke-width:3"></line>
  <line x1="370" y1="170" x2="370" y2="270" style="stroke:#F8F32B; stroke-width:3"></line>
  <line x1="420" y1="270" x2="370" y2="270" style="stroke:#F8F32B; stroke-width:3"></line>
  <line x1="400" y1="220" x2="430" y2="270" style="stroke:#F8F32B; stroke-width:3"></line>
  <line x1="450" y1="220" x2="430" y2="270" style="stroke:#F8F32B; stroke-width:3"></line>
  <line x1="400" y1="220" x2="430" y2="170" style="stroke:#F8F32B; stroke-width:3"></line>
  <line x1="450" y1="220" x2="430" y2="170" style="stroke:#F8F32B; stroke-width:3"></line>

  <line x1="120" y1="220" x2="150" y2="270" style="stroke:#F8F32B; stroke-width:3"></line>
  <line x1="120" y1="320" x2="150" y2="270" style="stroke:#F8F32B; stroke-width:3"></line>
  <line x1="120" y1="220" x2="120" y2="320" style="stroke:#F8F32B; stroke-width:3"></line>
  <line x1="120" y1="220" x2="70" y2="220" style="stroke:#F8F32B; stroke-width:3"></line>
  <line x1="120" y1="320" x2="70" y2="320" style="stroke:#F8F32B; stroke-width:3"></line>
  <line x1="70" y1="320" x2="50" y2="270" style="stroke:#F8F32B; stroke-width:3"></line>
  <line x1="70" y1="320" x2="100" y2="270" style="stroke:#F8F32B; stroke-width:3"></line>
  <line x1="70" y1="220" x2="50" y2="270" style="stroke:#F8F32B; stroke-width:3"></line>
  <line x1="70" y1="220" x2="100" y2="270" style="stroke:#F8F32B; stroke-width:3"></line>
  
  <circle cx ='250' cy ='20' r='10' fill = "#F50087"/>
  <circle cx ='250' cy ='70' r='10' fill = "#F50087"/>
  <circle cx ='250' cy ='120' r='10' fill = "#F50087"/>
  <circle cx ='250' cy ='220' r='10' fill = "green"/>
  <text x="245" y="220" style="font-family: Consolas">v<tspan baseline-shift="sub"></tspan></text>
  <circle cx ='250' cy ='270' r='10' fill = "green"/>
  <text x="245" y="270" style="font-family: Consolas">u<tspan baseline-shift="sub"></tspan></text>
  <circle cx ='250' cy ='370' r='10' fill = "#F50087"/>
  <circle cx ='250' cy ='420' r='10' fill = "#F50087"/>
  <circle cx ='250' cy ='470' r='10' fill = "#F50087"/>

  <circle cx ='350' cy ='220' r='10' fill = "#F50087"/>
  <circle cx ='400' cy ='220' r='10' fill = "#F50087"/>
  <circle cx ='450' cy ='220' r='10' fill = "#F50087"/>

  <circle cx ='150' cy ='270' r='10' fill = "#F50087"/>
  <circle cx ='100' cy ='270' r='10' fill = "#F50087"/>
  <circle cx ='50' cy ='270' r='10' fill = "#F50087"/>
  
  <circle cx ='200' cy ='50' r='10' fill = "#F50087"/>
  <circle cx ='300' cy ='50' r='10' fill = "#F50087"/>
  <circle cx ='200' cy ='100' r='10' fill = "#F50087"/>
  <circle cx ='300' cy ='100' r='10' fill = "#F50087"/>

  <circle cx ='200' cy ='400' r='10' fill = "#F50087"/>
  <circle cx ='300' cy ='400' r='10' fill = "#F50087"/>
  <circle cx ='200' cy ='450' r='10' fill = "#F50087"/>
  <circle cx ='300' cy ='450' r='10' fill = "#F50087"/>
  
  <circle cx ='370' cy ='170' r='10' fill = "#F50087"/>
  <circle cx ='370' cy ='270' r='10' fill = "#F50087"/>
  <circle cx ='430' cy ='170' r='10' fill = "#F50087"/>
  <circle cx ='430' cy ='270' r='10' fill = "#F50087"/>

  <circle cx ='120' cy ='220' r='10' fill = "#F50087"/>
  <circle cx ='120' cy ='320' r='10' fill = "#F50087"/>
  <circle cx ='70' cy ='220' r='10' fill = "#F50087"/>
  <circle cx ='70' cy ='320' r='10' fill = "#F50087"/>  
</svg>
